:SAMPLES-PER-SECOND 30
:FRAME-RANGE 1-744
:FULLY-SPECIFIED
:DEGREES
349
root  -19.9537 39.8025 97.0184 -5.0529 57.7258 1.45018
RightUpLeg  9.71669 -3.28624 -1.33172
RightLeg  -6.03319 -14.8816 0.91683
RightFoot  1.31744 -0.416554 3.83425
RightToes  5.82063e-011 0 -3.6325e-017
Spine  15.4822 4.9732 12.7854
Spine1  -5.10806 8.43746 -12.1571
HEad  0.615324 19.4618 -10.5433
LeftShoulder1  3.01592 -3.74151 -35.5779
LeftArm  3.01213 3.33014 -21.2404
LeftForeArm  -41.3894 -29.7467 -8.26001
LeftHand  -0.633781 -3.77204 8.29016
RightShoulder  15.9584 19.9631 59.014
RightArm  9.72921 17.269 -0.436784
RightForeArm  -18.6419 31.1466 7.78023
RightHand  2.07948 19.1147 9.25651
LeftUpLeg  8.33702 0.419862 -5.38837
LeftLeg  4.99884 -0.972897 2.90702
LeftFoot  -11.9672 0.0936615 3.97213
LeftToes  1.25507e-010 -3.78807e-010 5.71421e-011
350
root  -20.1428 39.775 97.2875 -5.4243 58.4153 0.719894
RightUpLeg  9.69068 -2.90452 -0.355888
RightLeg  -6.49209 -16.1512 1.37267
RightFoot  1.33185 -0.355019 3.27715
RightToes  5.82063e-011 0 -3.6325e-017
Spine  15.836 5.13607 12.9947
Spine1  -5.34794 8.70352 -12.4691
HEad  1.71757 17.4806 -9.28787
LeftShoulder1  2.98631 -3.73627 -35.2071
LeftArm  -4.27529 2.31285 -19.9335
LeftForeArm  -45.9648 -33.8693 -9.53708
LeftHand  -0.425457 -2.84103 6.22985
RightShoulder  16.5552 21.1779 58.2591
RightArm  6.04792 18.8472 -0.715428
RightForeArm  -21.642 31.1496 7.91673
RightHand  2.56152 19.3792 11.3708
LeftUpLeg  8.77945 0.0783353 -4.85396
LeftLeg  3.05293 -4.75474 3.40628
LeftFoot  -10.2022 0.0236193 3.7967
LeftToes  1.25507e-010 -3.78807e-010 5.71421e-011
351
root  -20.3097 39.7519 97.5131 -5.82433 58.961 -0.0644684
RightUpLeg  9.47152 -2.72048 0.418059
RightLeg  -6.64269 -16.9293 1.87164
RightFoot  1.23608 -0.271834 2.54208
RightToes  5.82063e-011 0 -3.6325e-017
Spine  16.0837 5.40873 13.2012
Spine1  -5.58935 9.0712 -12.8369
HEad  3.13869 15.1257 -8.12036
LeftShoulder1  2.95755 -3.81583 -34.3805
LeftArm  -9.94963 1.43592 -19.1761
LeftForeArm  -52.095 -38.8877 -11.2775
LeftHand  -0.148666 -1.31988 2.71042
RightShoulder  16.8654 22.1799 57.1076
RightArm  1.69027 19.8097 -1.25629
RightForeArm  -26.0078 32.5024 8.47559
RightHand  3.59396 19.7031 15.8806
LeftUpLeg  8.92258 0.364155 -3.8703
LeftLeg  1.85981 -7.55584 3.47541
LeftFoot  -8.13736 -0.105923 5.53607
LeftToes  1.25507e-010 -3.78807e-010 5.71421e-011
352
root  -20.4427 39.7379 97.6896 -6.11449 59.4626 -0.70372
RightUpLeg  9.35316 -2.23674 1.21372
RightLeg  -7.06967 -18.0647 2.17708
RightFoot  1.35799 -0.234624 2.19078
RightToes  5.82063e-011 0 -3.6325e-017
Spine  16.2828 5.68443 13.0583
Spine1  -5.8547 9.3403 -13.0215
HEad  4.54962 12.6147 -6.99298
LeftShoulder1  2.91118 -3.87763 -33.4248
LeftArm  -13.0084 1.09526 -18.5202
LeftForeArm  -56.1983 -45.0128 -13.7065
LeftHand  0.0761615 0.387891 -1.83595
RightShoulder  16.643 22.591 55.5533
RightArm  -1.94109 20.6343 -1.85675
RightForeArm  -29.1901 35.111 9.36502
RightHand  4.69684 19.5311 20.9541
LeftUpLeg  8.81947 0.891871 -2.90877
LeftLeg  1.2866 -8.95197 3.35113
LeftFoot  -7.77506 -0.134607 5.82381
LeftToes  1.25507e-010 -3.78807e-010 5.71421e-011
353
root  -20.5401 39.725 97.8006 -6.65958 60.2677 -1.5529
RightUpLeg  9.25978 -1.88009 1.89338
RightLeg  -7.38034 -19.3547 2.58257
RightFoot  1.44846 -0.20255 1.89464
RightToes  5.82063e-011 0 -3.6325e-017
Spine  16.229 5.65738 12.7703
Spine1  -5.86236 9.24579 -12.9065
HEad  5.66883 10.3792 -6.14335
LeftShoulder1  2.89618 -3.97375 -32.7215
LeftArm  -13.8037 1.6292 -17.2412
LeftForeArm  -56.8826 -52.4998 -17.5228
LeftHand  0.0776373 2.90009 -4.50688
RightShoulder  16.1432 22.8306 53.477
RightArm  -3.81826 20.906 -2.32126
RightForeArm  -30.5253 39.172 10.727
RightHand  5.37728 18.7749 24.7336
LeftUpLeg  8.39722 1.45268 -1.94392
LeftLeg  1.32381 -10.6576 3.02017
LeftFoot  -7.08896 -0.202749 6.60486
LeftToes  1.25507e-010 -3.78807e-010 5.71421e-011
354
root  -20.6118 39.7135 97.8579 -7.1326 61.0146 -2.13011
RightUpLeg  9.08241 -1.59567 2.35722
RightLeg  -7.16203 -20.4761 2.6513
RightFoot  1.33782 -0.203841 1.91612
RightToes  5.82063e-011 0 -3.6325e-017
Spine  16.0738 5.55299 12.0546
Spine1  -5.61738 8.98808 -12.3677
HEad  6.72396 8.46611 -5.44195
LeftShoulder1  2.90068 -4.08764 -32.2011
LeftArm  -13.8579 3.3799 -16.0511
LeftForeArm  -53.0168 -60.4187 -23.5205
LeftHand  0.051092 4.13319 -7.39613
RightShoulder  15.4546 22.9675 50.9778
RightArm  -4.11276 20.835 -2.42575
RightForeArm  -32.1209 43.661 12.4644
RightHand  5.84638 17.5785 28.2499
LeftUpLeg  8.06116 1.35522 -1.63198
LeftLeg  1.56512 -11.5254 3.19957
LeftFoot  -6.61829 -0.245684 6.91666
LeftToes  1.25507e-010 -3.78807e-010 5.71421e-011
355
root  -20.659 39.7034 97.8786 -7.69212 61.5493 -2.74858
RightUpLeg  8.86711 -1.40743 2.70565
RightLeg  -6.73552 -21.1955 2.66246
RightFoot  1.15162 -0.189495 1.80227
RightToes  5.82063e-011 0 -3.6325e-017
Spine  15.8001 5.419 11.5775
Spine1  -5.22328 8.77912 -12.1566
HEad  7.88863 6.33428 -4.61353
LeftShoulder1  2.89425 -4.10126 -32.0478
LeftArm  -11.9972 5.43555 -14.9723
LeftForeArm  -32.13 -67.1318 -31.6205
LeftHand  0.144333 2.33053 -6.10522
RightShoulder  14.7604 22.8713 48.8645
RightArm  -3.85757 20.4402 -2.48801
RightForeArm  -29.0776 48.27 14.3746
RightHand  6.22756 17.0065 30.7957
LeftUpLeg  7.72592 1.35858 -1.30017
LeftLeg  2.03185 -12.2927 3.23726
LeftFoot  -6.56517 -0.256205 7.08353
LeftToes  1.25507e-010 -3.78807e-010 5.71421e-011
